<svg xmlns="http://www.w3.org/2000/svg" width="12" height="12" viewBox="0 0 12 12" fill="none">
  <g clip-path="url(#clip0_832_2823)">
    <path d="M11.1772 9.29406C11.1772 9.54368 11.078 9.78307 10.9015 9.95957C10.725 10.1361 10.4856 10.2352 10.236 10.2352H1.7654C1.51578 10.2352 1.27639 10.1361 1.09988 9.95957C0.923378 9.78307 0.824219 9.54368 0.824219 9.29406V4.11759C0.824219 3.86797 0.923378 3.62858 1.09988 3.45208C1.27639 3.27557 1.51578 3.17641 1.7654 3.17641H3.64775L4.58892 1.76465H7.41245L8.35363 3.17641H10.236C10.4856 3.17641 10.725 3.27557 10.9015 3.45208C11.078 3.62858 11.1772 3.86797 11.1772 4.11759V9.29406Z" stroke="#0C0C0C" stroke-linecap="round" stroke-linejoin="round"/>
    <path d="M6.00052 8.3526C7.04011 8.3526 7.88287 7.50984 7.88287 6.47024C7.88287 5.43065 7.04011 4.58789 6.00052 4.58789C4.96092 4.58789 4.11816 5.43065 4.11816 6.47024C4.11816 7.50984 4.96092 8.3526 6.00052 8.3526Z" stroke="#0C0C0C" stroke-linecap="round" stroke-linejoin="round"/>
  </g>
  <defs>
    <clipPath id="clip0_832_2823">
      <rect width="11.2941" height="11.2941" fill="white" transform="translate(0.353516 0.352539)"/>
    </clipPath>
  </defs>
</svg>