<svg xmlns="http://www.w3.org/2000/svg" width="16" height="16" viewBox="0 0 16 16" fill="none">
  <path d="M14 7.5H10C9.72386 7.5 9.5 7.72386 9.5 8V14C9.5 14.2761 9.72386 14.5 10 14.5H14C14.2761 14.5 14.5 14.2761 14.5 14V8C14.5 7.72386 14.2761 7.5 14 7.5Z" stroke="white" stroke-width="1.5" stroke-linecap="round" stroke-linejoin="round"/>
  <path d="M14 1.5H10C9.72386 1.5 9.5 1.72386 9.5 2V4.01C9.5 4.28614 9.72386 4.51 10 4.51H14C14.2761 4.51 14.5 4.28614 14.5 4.01V2C14.5 1.72386 14.2761 1.5 14 1.5Z" stroke="white" stroke-width="1.5" stroke-linecap="round" stroke-linejoin="round"/>
  <path d="M6 1.5H2C1.72386 1.5 1.5 1.72386 1.5 2V8C1.5 8.27614 1.72386 8.5 2 8.5H6C6.27614 8.5 6.5 8.27614 6.5 8V2C6.5 1.72386 6.27614 1.5 6 1.5Z" stroke="white" stroke-width="1.5" stroke-linecap="round" stroke-linejoin="round"/>
  <path d="M6 11.4902H2C1.72386 11.4902 1.5 11.714 1.5 11.9902V14.0002C1.5 14.2763 1.72386 14.5002 2 14.5002H6C6.27614 14.5002 6.5 14.2763 6.5 14.0002V11.9902C6.5 11.714 6.27614 11.4902 6 11.4902Z" stroke="white" stroke-width="1.5" stroke-linecap="round" stroke-linejoin="round"/>
</svg>