<svg xmlns="http://www.w3.org/2000/svg" width="33" height="32" viewBox="0 0 33 32" fill="none">
  <rect x="2.49341" y="2.13306" width="27.8328" height="27.8328" rx="2.78328" fill="url(#paint0_radial_752_2294)"/>
  <path d="M19.7204 17.8123C19.7204 17.8123 20.5128 17.7726 20.8139 17.7036C20.9533 17.6716 20.8925 17.5446 20.8806 17.5197C20.8792 17.517 20.8787 17.5155 20.8787 17.5155C20.6927 17.1391 20.4752 17.16 20.4752 17.16C19.8522 17.1391 18.9469 17.3043 18.8486 17.3524C18.7566 17.3942 18.765 17.4632 18.8862 17.6158C19.0158 17.7747 19.2333 17.7601 19.2333 17.7601L19.043 18.1552C18.8883 18.1678 18.834 18.2159 18.834 18.2159C18.744 18.31 18.8674 18.5943 18.8674 18.5943C18.8674 18.5943 18.5956 19.2027 18.7921 19.5226C19.0033 19.8592 19.2521 19.8425 19.2521 19.8425C19.7267 19.878 20.5045 19.3804 20.5463 19.2173C20.5818 19.0835 20.4606 18.9393 20.3519 18.9121C20.2494 18.8912 19.4695 19.0375 19.3755 19.0626C19.2751 19.0898 19.319 18.9957 19.319 18.9957L19.4403 18.588C19.4403 18.588 20.1846 18.5608 20.2933 18.542C20.3937 18.5253 20.3999 18.4542 20.3999 18.4542C20.3999 18.4542 20.4125 18.3371 20.4083 18.2284C20.3979 18.1113 20.3038 18.1218 20.3038 18.1218C20.0152 18.0925 19.6201 18.126 19.6201 18.126L19.7204 17.8123Z" fill="white"/>
  <path d="M17.9182 19.485C18.1795 19.6104 18.3907 19.4097 18.4702 19.2215C18.5496 19.0334 18.6876 18.4082 18.4848 17.7078C18.2799 17.0137 17.8534 16.8004 17.8534 16.8004C17.8534 16.8004 17.7426 16.7481 17.7154 16.859C17.6861 16.9677 17.7279 17.0848 17.7279 17.0848C18.0018 18.0172 18.0645 18.5671 18.0645 18.5671C18.0645 18.5671 18.0771 18.7302 18.0457 18.7386C18.0248 18.7553 17.9997 18.7323 17.9997 18.7323C17.9684 18.7344 17.6673 18.2284 17.6673 18.2284L17.6088 18.1301C17.2763 17.5949 17.0756 17.413 17.0756 17.413L17.0732 17.4108C17.0256 17.3651 16.9058 17.2506 16.7578 17.4151C16.6073 17.5845 16.4902 18.1239 16.4421 18.6298C16.4024 19.1358 16.4337 19.4243 16.5069 19.5456C16.5885 19.669 16.7453 19.7108 16.8749 19.6062C16.9788 19.5263 16.9886 19.1178 16.9968 18.7766C16.9993 18.6714 17.0017 18.5726 17.0066 18.4919C17.0275 18.149 17.061 18.2096 17.061 18.2096C17.0902 18.2033 17.2471 18.5169 17.2471 18.5169C17.2471 18.5169 17.6589 19.3595 17.9182 19.485Z" fill="white"/>
  <path d="M16.3617 17.4671C16.3662 17.457 16.3706 17.4473 16.3752 17.4381C16.4013 17.3806 16.3883 17.3376 16.3844 17.3249C16.3836 17.3223 16.3836 17.321 16.3836 17.321C16.1996 17.1161 15.1981 17.1517 15.1981 17.1517C14.8343 17.1851 13.9917 17.3336 13.8704 17.7183C13.7555 18.0862 13.86 18.2159 13.86 18.2159C13.9496 18.3807 14.4933 18.3951 14.7696 18.4024C14.8158 18.4036 14.8545 18.4046 14.8824 18.4061C15.0852 18.4166 15.6058 18.4793 15.7877 18.5838C15.9696 18.6947 15.8504 18.8306 15.8504 18.8306C15.5493 19.1651 14.5395 19.2173 14.2781 19.0689C14.1757 18.9999 14.1506 18.9309 14.2551 18.8201C14.3597 18.6988 14.6984 18.8766 14.6608 18.8619C14.621 18.841 14.8259 18.9748 15.1061 18.9832C15.3946 18.9895 15.5932 18.8828 15.6079 18.7825C15.6204 18.6884 15.3612 18.5943 15.3612 18.5943C14.506 18.3559 14.1694 18.5588 14.1694 18.5588C13.7032 18.8515 14.0503 19.2383 14.0503 19.2383C14.8029 20.0411 15.9696 19.5184 16.1055 19.4055C16.2351 19.2843 16.2937 19.1672 16.2999 18.8326C16.3062 18.5065 16.1619 18.3622 16.1619 18.3622C15.92 18.0598 15.2455 18.0528 15.0428 18.0507L15.0413 18.0507C14.8531 18.0402 14.4642 17.988 14.3701 17.9692C14.2761 17.9482 14.3367 17.8772 14.3367 17.8772C14.4182 17.7559 16.1389 17.6388 16.1389 17.6388C16.2954 17.6152 16.3316 17.5345 16.3617 17.4671Z" fill="white"/>
  <path d="M13.0801 19.6439C13.1533 19.7442 13.4105 19.784 13.5317 19.694C13.6467 19.6062 13.5924 18.7657 13.5924 18.7657C13.5924 18.7657 13.5506 17.8333 13.538 17.6555C13.5239 17.4842 13.4631 17.4003 13.4101 17.327C13.4081 17.3243 13.4062 17.3216 13.4042 17.3189C13.354 17.2416 13.2746 17.1433 13.1449 17.2562C13.0289 17.3623 13.0124 18.0103 12.9984 18.5625C12.9978 18.5873 12.9971 18.6118 12.9965 18.6361C12.9819 19.1964 13.007 19.554 13.0801 19.6439Z" fill="white"/>
  <path fill-rule="evenodd" clip-rule="evenodd" d="M12.9923 16.6771C13.1972 16.7649 13.4397 16.8046 13.7931 16.6875C14.3451 16.5014 14.8824 15.9578 14.8887 15.5209C14.8991 15.086 14.4099 15.0839 14.4099 15.0839H14.3952C14.3095 14.8142 13.8056 14.8518 13.8056 14.8518C12.7749 14.9354 12.4362 15.6505 12.386 15.8387C12.3525 16.0017 12.3672 16.2443 12.5679 16.4241C12.5158 16.5655 12.5482 16.6341 12.5677 16.6754C12.5701 16.6805 12.5723 16.6852 12.5742 16.6896C12.5909 16.7419 12.6808 16.9029 12.7812 16.8924C12.8501 16.882 12.9024 16.8339 12.9923 16.6771ZM12.7707 16.0561C12.7226 15.9871 12.7268 15.8867 12.8313 15.7195C12.9735 15.4979 13.1805 15.3912 13.4272 15.3703C13.1073 15.5878 12.8899 15.8742 12.7707 16.0561ZM13.1909 16.2777C13.4293 15.9223 13.9311 15.4874 14.2551 15.4393C14.5987 15.3791 14.5044 15.6865 14.4908 15.7309C14.4897 15.7343 14.4893 15.7362 14.4893 15.7362C14.2029 16.3195 13.5568 16.3446 13.1909 16.2777Z" fill="white"/>
  <path fill-rule="evenodd" clip-rule="evenodd" d="M21.5854 19.6878C22.313 19.8529 22.8587 19.1463 23.0531 18.8076C23.166 18.6048 23.2267 18.333 23.2288 18.0758C23.2288 17.7852 23.1493 17.5155 22.9758 17.3921C22.4594 17.0346 21.6272 18.1699 21.2613 18.7323C21.207 18.4459 21.4014 18.0821 21.4014 18.0821C21.4014 18.0821 21.713 17.5426 21.7569 17.4339C21.8008 17.3252 21.8259 17.0994 21.7715 17.0764C21.7234 17.0534 21.6398 17.1266 21.6398 17.1266C20.9435 17.7538 20.8453 18.4479 20.8453 18.4479C20.7784 18.8222 20.8557 19.0856 20.9686 19.2696C20.5818 20.0955 20.3916 20.8168 20.4418 21.2433C20.4878 21.5674 20.7219 21.8016 20.862 21.8517C21.0042 21.9124 21.0293 21.7409 21.0293 21.7409C21.1443 20.8586 21.345 20.2711 21.5854 19.6878ZM22.6559 17.9399C22.8733 17.6932 22.9026 17.9169 22.9026 17.9169C22.9528 18.3518 22.6371 18.6779 22.5012 18.7992C22.4175 18.8786 22.1416 19.0355 21.8551 19.0668C22.129 18.5378 22.4677 18.1469 22.6559 17.9399Z" fill="white"/>
  <path fill-rule="evenodd" clip-rule="evenodd" d="M11.1399 19.9784C12.5177 19.5581 12.7122 18.7072 12.7519 18.2012C12.7937 17.6869 12.4132 16.3613 10.1823 15.2302C10.1823 15.2302 7.80092 14.005 5.84604 14.6825C5.84604 14.6825 5.72269 14.6762 5.60978 14.8434C5.59753 14.8607 5.58545 14.8774 5.57372 14.8936C5.4774 15.0265 5.40497 15.1265 5.45716 15.2365C5.5157 15.3599 5.81886 15.4142 6.08857 15.3285C6.08857 15.3285 6.20984 15.247 6.05303 15.1968C5.90458 15.1466 5.81886 15.1341 5.81886 15.1341C5.81886 15.1341 5.7415 15.1215 5.82513 15.0797C5.90249 15.04 6.79734 14.7514 8.37797 15.1654C9.96069 15.571 12.1016 16.8485 12.0368 18.1803C11.9741 19.5101 9.8917 19.5686 9.8917 19.5686C9.8917 19.5686 9.46518 19.5895 8.8944 19.4808C8.89245 19.3997 8.89006 19.3079 8.8875 19.2092C8.87631 18.778 8.86172 18.2157 8.86512 17.85C9.68053 17.85 10.5001 17.9901 10.5691 18.1908C10.5691 18.1908 10.6109 18.2828 10.4269 18.3727C10.2576 18.4459 10.128 18.5044 10.268 18.5713C10.268 18.5713 10.4729 18.6654 10.6047 18.6549C10.7301 18.6445 11.0604 18.496 11.0876 18.1364C11.1253 17.7705 10.7029 17.4486 10.0715 17.3336C9.58644 17.2457 9.32928 17.2144 8.8944 17.2353C8.89021 16.8401 8.83794 16.3446 8.75013 16.2296C8.74387 16.2204 8.73755 16.2109 8.73118 16.2014C8.63116 16.0519 8.51857 15.8837 8.42815 16.0979C8.3487 16.2944 8.2818 16.7231 8.2588 17.2917C7.59393 17.4046 6.85589 17.6827 6.63008 17.9608C6.38964 18.2681 6.63008 18.519 6.65308 18.542C6.6719 18.5734 7.15696 19.2717 8.21071 19.7568C8.23162 19.9429 8.26925 20.1519 8.34243 20.2669C8.50551 20.5095 8.8024 20.338 8.84213 20.2983C8.8714 20.2669 8.8923 20.1875 8.90276 20.0014C9.37109 20.1206 10.2304 20.2523 11.1399 19.9784ZM6.78271 18.3978C6.78271 18.3978 6.63008 18.241 6.8517 18.1322C7.05242 18.0402 7.49148 17.919 8.25253 17.8667C8.25137 17.9382 8.25072 18.0057 8.25006 18.073C8.24714 18.3724 8.24424 18.6692 8.19817 19.2989C7.71102 19.1254 7.19877 18.8452 6.78271 18.3978Z" fill="white"/>
  <path d="M27.1944 18.2496V17.9736C27.1944 17.915 27.1442 17.8649 27.0857 17.8649H25.7539C25.7267 17.4112 25.6723 16.97 25.5866 16.5163C25.5761 16.4682 25.5364 16.4348 25.4883 16.4348H25.181C25.1538 16.4348 25.1287 16.4473 25.112 16.4682C25.0953 16.4891 25.089 16.5163 25.0932 16.5435C25.181 16.9825 25.2354 17.4153 25.2625 17.8649H23.9809C23.9203 17.8649 23.8722 17.9129 23.8722 17.9736V18.2496C23.8722 18.3102 23.9203 18.3583 23.9809 18.3583H25.2813C25.2834 18.4252 25.2834 18.4858 25.2834 18.5444C25.2834 18.9437 25.2646 19.2719 25.2249 19.6441C25.2207 19.6734 25.2312 19.7026 25.25 19.7236C25.2688 19.7445 25.296 19.757 25.3253 19.757H25.6096C25.664 19.757 25.71 19.7152 25.7162 19.6587C25.756 19.2845 25.7727 18.9521 25.7727 18.5444C25.7727 18.5175 25.7722 18.4898 25.7717 18.4606C25.7712 18.4284 25.7706 18.3945 25.7706 18.3583H27.0857C27.1463 18.3583 27.1944 18.3102 27.1944 18.2496Z" fill="white"/>
  <path d="M25.4059 15.7848C24.7264 14.1143 23.5785 12.6905 22.0857 11.666C20.5574 10.6185 18.7656 10.0645 16.9048 10.0645C13.8272 10.0645 10.9712 11.5928 9.26717 14.154C9.24835 14.1812 9.24417 14.2167 9.25462 14.2481C9.26508 14.2816 9.29017 14.3046 9.32153 14.315L9.55988 14.3965C9.57451 14.4007 9.58915 14.4028 9.60169 14.4028C9.6456 14.4028 9.68742 14.3798 9.7125 14.3443C10.4945 13.1943 11.5524 12.2389 12.7734 11.5782C14.0341 10.8966 15.4621 10.5349 16.9027 10.5349C18.6443 10.5349 20.3232 11.0492 21.7617 12.0193C23.1646 12.9665 24.2539 14.2899 24.9125 15.8434C24.9313 15.8894 24.9773 15.9207 25.0275 15.9207H25.3118C25.3453 15.9207 25.3766 15.904 25.3933 15.8768C25.4142 15.8496 25.4184 15.8162 25.4059 15.7848ZM24.9689 15.8831C24.9752 15.8873 24.9815 15.8915 24.9877 15.8935C24.9815 15.8894 24.9752 15.8873 24.9689 15.8831Z" fill="url(#paint1_radial_752_2294)"/>
  <defs>
    <radialGradient id="paint0_radial_752_2294" cx="0" cy="0" r="1" gradientUnits="userSpaceOnUse" gradientTransform="translate(16.4098 29.9659) rotate(-90) scale(27.8328 34.5565)">
      <stop offset="0.0655875" stop-color="#0367DE"/>
      <stop offset="0.347104" stop-color="#0057BE"/>
      <stop offset="0.769378" stop-color="#000940"/>
    </radialGradient>
    <radialGradient id="paint1_radial_752_2294" cx="0" cy="0" r="1" gradientUnits="userSpaceOnUse" gradientTransform="translate(25.1387 15.9102) scale(15.8925 15.8925)">
      <stop stop-color="white"/>
      <stop offset="0.01" stop-color="white"/>
      <stop offset="0.03" stop-color="#CBFFFF"/>
      <stop offset="0.06" stop-color="#96FFFF"/>
      <stop offset="0.08" stop-color="#68FFFF"/>
      <stop offset="0.11" stop-color="#43FFFF"/>
      <stop offset="0.14" stop-color="#25FFFF"/>
      <stop offset="0.16" stop-color="#11FFFF"/>
      <stop offset="0.19" stop-color="#04FFFF"/>
      <stop offset="0.22" stop-color="#00FFFF"/>
      <stop offset="1" stop-color="#0000FF" stop-opacity="0"/>
    </radialGradient>
  </defs>
</svg>