<svg xmlns="http://www.w3.org/2000/svg" width="32" height="32" viewBox="0 0 32 32" fill="none">
  <rect x="2.03394" y="2.13306" width="27.8328" height="27.8328" rx="2.78328" fill="url(#paint0_linear_752_2315)"/>
  <path d="M11.3969 15.922H13.1347V9.51688H11.3934V11.9072H10.2669V9.51688H8.48447V15.922H10.2704V13.439H11.3969V15.922Z" fill="white"/>
  <path d="M22.3973 12.6594C22.3973 13.3737 21.8135 13.9438 21.1197 13.9438C20.4053 13.9438 19.8352 13.3737 19.8352 12.6594C19.8352 11.945 20.4053 11.3818 21.1197 11.3818C21.8135 11.3818 22.3973 11.945 22.3973 12.6594Z" fill="white"/>
  <path fill-rule="evenodd" clip-rule="evenodd" d="M24.3584 12.6594C24.3584 14.4658 22.9022 15.9495 21.1197 15.9495C19.3166 15.9495 18.4305 14.6376 18.1798 14.1155C18.1798 14.9604 17.3865 15.922 16.26 15.922H13.4919V9.51345H16.4661C17.3865 9.51345 18.1798 10.4613 18.1798 11.2547C18.3996 10.7189 19.3132 9.40698 21.1197 9.40698C22.9022 9.40698 24.3584 10.8254 24.3584 12.6594ZM16.5038 13.882C16.5038 13.5969 16.2978 13.3462 16.0402 13.3462H15.1541V14.4315H16.0402C16.2978 14.4315 16.5038 14.1808 16.5038 13.882ZM16.5038 11.4779C16.5038 11.1929 16.2978 10.9422 16.0402 10.9422H15.1541V12.0137H16.0402C16.2978 12.0137 16.5038 11.763 16.5038 11.4779ZM17.881 12.2678C17.754 12.4086 17.4174 12.6456 17.2113 12.6594C17.4174 12.6971 17.7402 12.9444 17.881 13.1539C17.833 12.9822 17.833 12.4396 17.881 12.2678ZM21.1334 11.0315C20.2302 11.028 19.4952 11.7561 19.4952 12.6594C19.4952 13.566 20.2233 14.2941 21.1231 14.2941C22.0161 14.2941 22.7373 13.5763 22.751 12.6834C22.7613 11.7767 22.0401 11.0383 21.1334 11.0315Z" fill="white"/>
  <path d="M11.7349 16.4623C13.0118 16.4623 14.0543 17.2408 14.0869 18.7132C14.0869 18.7149 14.0877 18.7165 14.0881 18.7173C14.0885 18.7181 14.0885 18.7181 14.0869 18.7165V22.5409C14.0869 22.593 14.0445 22.6354 13.9924 22.6354H13.4647C13.1584 22.6354 12.9076 22.3878 12.9076 22.0783V18.7198C12.8848 17.9933 12.3701 17.6089 11.7349 17.6089C11.0996 17.6089 10.5849 17.9933 10.5621 18.7198V22.5442C10.5621 22.5963 10.5198 22.6386 10.4677 22.6386H9.93992C9.63371 22.6386 9.38288 22.3911 9.38288 22.0816V18.723C9.36007 17.9966 8.84537 17.6122 8.21014 17.6122C7.57491 17.6122 7.06021 17.9966 7.0374 18.723V22.5474C7.0374 22.5995 6.99505 22.6419 6.94293 22.6419H6.4152C6.10898 22.6419 5.85815 22.3943 5.85815 22.0848V18.7165C5.89073 17.2441 6.93316 16.4623 8.21014 16.4623C8.91053 16.4623 9.5425 16.6968 9.9725 17.1529C10.4025 16.6968 11.0345 16.4623 11.7349 16.4623Z" fill="white"/>
  <path d="M25.0715 16.5567H25.9673C26.0227 16.5567 26.0553 16.6219 26.0227 16.6675L24.2571 19.2866C24.13 19.4755 24.13 19.7231 24.2571 19.912L26.026 22.5279C26.0553 22.5735 26.0227 22.6354 25.9673 22.6354H25.0715C24.8239 22.6354 24.5894 22.5116 24.4525 22.3064L23.4622 20.8404C23.3319 20.6482 23.0518 20.6482 22.9215 20.8404L21.9312 22.3064C21.7911 22.5116 21.5598 22.6354 21.3122 22.6354H20.4164C20.361 22.6354 20.3252 22.5735 20.3577 22.5279L22.1234 19.9088C22.2504 19.7198 22.2504 19.4723 22.1234 19.2833L20.3577 16.6642C20.3284 16.6186 20.361 16.5567 20.4164 16.5567H21.3122C21.5598 16.5567 21.7943 16.6805 21.9312 16.8857L22.9215 18.3517C23.0518 18.5438 23.3319 18.5438 23.4622 18.3517L24.4525 16.8857C24.5926 16.6805 24.8239 16.5567 25.0715 16.5567Z" fill="white"/>
  <path fill-rule="evenodd" clip-rule="evenodd" d="M19.4261 16.5567H19.9538C20.0059 16.5567 20.045 16.5991 20.0483 16.6512V22.5474C20.0483 22.5995 20.0059 22.6419 19.9538 22.6419H19.4261C19.1329 22.6419 18.8951 22.4171 18.869 22.1337C18.3999 22.4855 17.8168 22.6647 17.1848 22.6647C15.6375 22.6647 14.3865 21.5897 14.3865 19.5602C14.3865 17.5307 15.6407 16.4557 17.1848 16.4557C17.8201 16.4557 18.4097 16.6382 18.8788 16.9965C18.9342 16.7457 19.1589 16.5567 19.4261 16.5567ZM15.5137 19.5635C15.5137 20.8372 16.2629 21.5115 17.1848 21.5115C18.1067 21.5115 18.856 20.8372 18.856 19.5635C18.856 18.2898 18.1067 17.6154 17.1848 17.6154C16.2629 17.6154 15.5137 18.2898 15.5137 19.5635Z" fill="white"/>
  <defs>
    <linearGradient id="paint0_linear_752_2315" x1="26.385" y1="0.915028" x2="10.729" y2="26.1385" gradientUnits="userSpaceOnUse">
      <stop stop-color="#220635"/>
      <stop offset="1" stop-color="#37086E"/>
    </linearGradient>
  </defs>
</svg>