<svg xmlns="http://www.w3.org/2000/svg" width="33" height="32" viewBox="0 0 33 32" fill="none">
  <rect x="2.67358" y="2.13306" width="27.8328" height="27.8328" rx="2.78328" fill="#0064FF"/>
  <path d="M14.6796 20.3986C14.5927 20.3626 14.4502 20.2027 14.6872 19.7576L15.2378 18.6069C15.2545 18.5721 15.2143 18.5286 15.1892 18.5581L14.7078 19.0421C14.48 19.2799 14.0936 19.9481 14.0188 20.0718L13.434 21.0386C13.4774 21.0372 13.5138 21.0714 13.5151 21.1148C13.5158 21.1291 13.5121 21.1432 13.5051 21.1558L12.9706 22.0536C12.8401 22.2762 13.0746 22.4319 13.1063 22.3806C13.9465 21.0274 14.4352 21.1354 14.4352 21.1354L14.7157 20.4859C14.7305 20.4534 14.7163 20.415 14.6835 20.4002C14.6823 20.3996 14.681 20.3991 14.6796 20.3986ZM16.5898 9.09131C11.786 9.09131 7.89185 12.9836 7.89185 17.7849C7.88933 19.6436 8.4856 21.4537 9.59235 22.947C9.95723 22.7895 10.16 22.5541 10.3048 22.3738L11.9243 20.3036C11.9584 20.2599 12.0029 20.2256 12.0538 20.2037L12.2976 20.0989L14.9605 16.7228L15.3466 16.4207L16.1401 15.3168C16.1606 15.2883 16.1855 15.2632 16.2141 15.2425L16.5602 14.9909C16.6458 14.9288 16.7613 14.9278 16.8478 14.9885L17.2679 15.2833C17.4907 15.4396 17.6714 15.6486 17.7938 15.8918L19.4764 18.8459C19.5039 18.9023 19.5506 18.947 19.608 18.972C19.938 19.1362 20.1396 19.1652 20.5715 19.6341C20.773 19.8527 21.6561 20.8399 22.8937 22.3741C23.0735 22.6202 23.3143 22.8153 23.5923 22.9403C24.6957 21.4481 25.29 19.6407 25.2874 17.7849C25.2874 12.9835 21.3934 9.09131 16.5898 9.09131ZM10.2375 18.2641L9.67357 18.081L9.3252 18.5603V17.968L8.7612 17.7849L9.3252 17.6018V17.0093L9.67357 17.4887L10.2375 17.3056L9.88909 17.7849L10.2375 18.2641ZM10.1038 20.2026L9.92065 20.7661L9.73747 20.2026H9.14474L9.62423 19.8543L9.44109 19.2909L9.92061 19.6392L10.4002 19.2909L10.217 19.8543L10.6966 20.2026H10.1038ZM10.217 15.7152L10.4002 16.2786L9.92065 15.9303L9.44112 16.2786L9.62427 15.7152L9.14478 15.3669H9.7375L9.92068 14.8035L10.1039 15.3669H10.6966L10.217 15.7152ZM11.1688 14.4406L10.8206 13.9613L10.2567 14.1444L10.6051 13.6651L10.2567 13.1858L10.8206 13.3688L11.169 12.8895V13.482L11.733 13.6648L11.169 13.8479V14.4403L11.1688 14.4406ZM12.6512 12.3665L12.468 12.93L12.2848 12.3666H11.6921L12.1716 12.0183L11.9885 11.4548L12.468 11.803L12.9475 11.4548L12.7644 12.0187L13.2439 12.3669H12.6512L12.6512 12.3665ZM14.5191 11.4152L14.1707 11.8945V11.3022L13.6067 11.1191L14.1707 10.936V10.3436L14.5191 10.8229L15.0829 10.6398L14.7345 11.1191L15.0829 11.5984L14.5191 11.4152ZM16.8861 10.8721L17.0693 11.4355L16.5898 11.0873L16.1102 11.4355L16.2932 10.8724L15.8137 10.5241H16.4064L16.5896 9.96066L16.7728 10.5241H17.3656L16.8861 10.8721ZM19.0085 11.3022V11.8947L18.6603 11.4153L18.0964 11.5984L18.4448 11.1191L18.0964 10.6398L18.6604 10.8229L19.0086 10.3436V10.936L19.5726 11.1191L19.0085 11.3022ZM22.9417 17.3056L23.5057 17.4887L23.8539 17.0093V17.6018L24.4179 17.7849L23.8539 17.968V18.5604L23.5057 18.0811L22.9417 18.2642L23.2905 17.7849L22.9417 17.3056ZM20.7114 12.9301L20.5281 12.3667H19.9354L20.4148 12.0184L20.2321 11.4549L20.7114 11.8032L21.1908 11.455L21.008 12.0184L21.4874 12.3667H20.8947L20.7114 12.9301ZM22.0106 14.4408V13.8484L21.4467 13.6652L22.0106 13.4825V12.8897L22.3589 13.369L22.9229 13.186L22.5746 13.6653L22.9229 14.1446L22.3589 13.9615L22.0106 14.4408ZM23.0754 15.3671L23.2587 14.8037L23.442 15.3671H24.0347L23.5553 15.7154L23.7386 16.2788L23.2588 15.9305L22.7794 16.2788L22.9627 15.7154L22.4828 15.3671H23.0754ZM23.442 20.2026L23.2587 20.7661L23.0753 20.2026H22.4826L22.9625 19.8543L22.7792 19.2909L23.2586 19.6392L23.7385 19.2909L23.5552 19.8543L24.0345 20.2026H23.442ZM19.7402 22.8092C19.7819 22.7485 19.8498 22.5819 19.7224 22.2733L19.3375 21.2387C19.2853 21.1067 19.3997 21.0265 19.4764 21.1134C19.4764 21.1134 20.2039 21.9518 20.3919 22.3018L20.7506 22.8971C21.0592 22.917 21.9109 22.9403 22.7307 22.9403C22.6481 22.8583 22.5719 22.7702 22.5025 22.6768C21.1035 20.9432 20.2163 19.9788 20.2074 19.9692C19.9239 19.6612 19.7929 19.602 19.5766 19.5035C19.5453 19.4893 19.5113 19.4739 19.4764 19.4573V19.7205C19.4785 19.7383 19.4658 19.7544 19.448 19.7565C19.4336 19.7582 19.4198 19.7502 19.4142 19.7368L17.3575 16.1254L17.3518 16.1139C17.266 15.9438 17.1396 15.7975 16.9837 15.688L16.7831 15.547L15.8019 17.8097C15.9191 17.8096 16.0142 17.9046 16.0143 18.0219C16.0143 18.0509 16.0083 18.0796 15.9968 18.1063L15.0902 20.2025H15.9224C16.244 20.2025 16.5626 20.2651 16.8603 20.387L17.0796 20.4769C17.0796 20.4769 16.4178 21.8379 16.4178 22.5545C16.4187 22.6848 16.437 22.8144 16.4718 22.94H17.9973L17.9267 22.5104C18.5251 22.644 19.1305 22.7438 19.7401 22.8094L19.7402 22.8092Z" fill="white"/>
</svg>