<svg xmlns="http://www.w3.org/2000/svg" width="32" height="32" viewBox="0 0 32 32" fill="none">
  <rect x="2.31323" y="2.13306" width="27.8328" height="27.8328" rx="2.78328" fill="#1A98FF"/>
  <path d="M14.4454 6.796C14.2372 6.796 14.0686 6.7365 13.9446 6.62246C13.8207 6.50842 13.7562 6.34975 13.7562 6.15142C13.7562 5.95309 13.8207 5.79938 13.9446 5.68038C14.0686 5.56634 14.2372 5.50684 14.4454 5.50684C14.6537 5.50684 14.8223 5.56634 14.9462 5.68038C15.0702 5.79442 15.1346 5.95309 15.1346 6.15142C15.1346 6.34975 15.0702 6.50346 14.9462 6.62246C14.8223 6.7365 14.6537 6.796 14.4454 6.796Z" fill="#000008"/>
  <path d="M14.0487 11.6502C13.9793 11.6502 13.9248 11.6353 13.895 11.6006C13.8603 11.5659 13.8455 11.5163 13.8455 11.4469V7.6538C13.8455 7.57446 13.8603 7.52488 13.895 7.49513C13.9297 7.46538 13.9793 7.4505 14.0487 7.4505H14.8371C14.9115 7.4505 14.966 7.46538 14.9958 7.49513C15.0255 7.52488 15.0404 7.57942 15.0404 7.6538V11.4469C15.0404 11.5163 15.0255 11.5709 14.9958 11.6006C14.966 11.6353 14.9115 11.6502 14.8371 11.6502H14.0487Z" fill="#000008"/>
  <path fill-rule="evenodd" clip-rule="evenodd" d="M5.73318 13.3014C5.76293 13.3311 5.81747 13.346 5.88689 13.346H6.68022C6.7546 13.346 6.80914 13.3311 6.83889 13.3014C6.86864 13.2716 6.88351 13.2171 6.88351 13.1427V11.3429C7.02731 11.4718 7.20085 11.5709 7.40414 11.6404C7.60248 11.7147 7.82064 11.7494 8.04377 11.7494C8.38589 11.7494 8.68835 11.6552 8.95115 11.4718C9.21394 11.2834 9.42219 11.0255 9.5759 10.6834C9.72465 10.3413 9.80398 9.9446 9.80398 9.48844C9.80398 8.82402 9.65027 8.29844 9.3379 7.90673C9.02552 7.51502 8.60406 7.32165 8.07352 7.32165C7.83056 7.32165 7.59256 7.36627 7.35952 7.46048C7.12647 7.54973 6.92814 7.67864 6.76451 7.83731L6.70501 7.6241C6.68022 7.5051 6.60089 7.4456 6.47693 7.4456H5.88689C5.81747 7.4456 5.76789 7.46048 5.73318 7.49023C5.69847 7.51998 5.68359 7.56956 5.68359 7.6489V13.1427C5.68359 13.2171 5.69847 13.2716 5.73318 13.3014ZM8.37102 10.5247C8.22723 10.733 7.99914 10.8371 7.69173 10.8371C7.39422 10.8371 7.12647 10.7627 6.88351 10.6189V8.45215C7.13639 8.3034 7.40414 8.22902 7.69173 8.22902C8.0041 8.22902 8.23219 8.33315 8.37598 8.5414C8.51977 8.74965 8.58919 9.08185 8.58919 9.53802C8.58919 9.98923 8.51481 10.3165 8.37102 10.5247Z" fill="#000008"/>
  <path d="M10.6529 11.6008C10.6826 11.6355 10.7371 11.6504 10.8066 11.6504L11.5999 11.6405C11.6743 11.6405 11.7288 11.6256 11.7586 11.5909C11.7883 11.5612 11.8032 11.5066 11.8032 11.4372V8.67045C11.9271 8.61591 12.0858 8.57128 12.2643 8.53658C12.4478 8.50187 12.6015 8.48203 12.7254 8.48203C12.8147 8.48203 12.894 8.48699 12.9535 8.49195L12.9833 8.49448C13.0297 8.49846 13.0694 8.50187 13.1023 8.50187C13.1767 8.50187 13.2312 8.48699 13.2609 8.45228C13.2907 8.42253 13.3056 8.36799 13.3056 8.29857V7.60937C13.3056 7.53499 13.2907 7.48045 13.256 7.4507C13.2262 7.42095 13.1667 7.40607 13.0924 7.40607H12.9783C12.7601 7.40607 12.5519 7.45566 12.3585 7.55978C12.1651 7.66391 11.9569 7.83249 11.7387 8.07545L11.6296 7.6292C11.6049 7.5102 11.5255 7.4507 11.4016 7.4507H10.8066C10.7371 7.4507 10.6876 7.46557 10.6529 7.49532C10.6181 7.52507 10.6033 7.57466 10.6033 7.65399V11.4471C10.6033 11.5165 10.6181 11.5661 10.6529 11.6008Z" fill="#000008"/>
  <path d="M16.089 11.602C16.1187 11.6367 16.1732 11.6516 16.2427 11.6516L17.0459 11.6566C17.1203 11.6566 17.1748 11.6417 17.2046 11.607C17.2343 11.5772 17.2492 11.5227 17.2492 11.4533V8.47331C17.5467 8.32456 17.8492 8.25018 18.1566 8.25018C18.4888 8.25018 18.6574 8.4386 18.6574 8.81047V11.4533C18.6574 11.5227 18.6723 11.5723 18.707 11.607C18.7367 11.6417 18.7913 11.6566 18.8607 11.6566H19.649C19.7234 11.6566 19.778 11.6417 19.8077 11.607C19.8375 11.5772 19.8523 11.5227 19.8523 11.4533V8.46339C20.1548 8.3196 20.4523 8.25018 20.7498 8.25018C21.082 8.25018 21.2506 8.4386 21.2506 8.81047V11.4533C21.2506 11.5227 21.2704 11.5723 21.3002 11.607C21.3299 11.6417 21.3845 11.6566 21.4539 11.6566H22.2423C22.3166 11.6566 22.3712 11.6417 22.4009 11.607C22.4307 11.5772 22.4456 11.5227 22.4456 11.4533V8.54768C22.4456 8.16589 22.3414 7.86343 22.1282 7.65022C21.92 7.43701 21.6175 7.32793 21.2357 7.32793C20.9729 7.32793 20.7151 7.37256 20.4721 7.45189C20.2292 7.53122 19.9614 7.6651 19.6838 7.85351C19.4805 7.50147 19.1334 7.32793 18.6375 7.32793C18.3896 7.32793 18.1516 7.3676 17.9186 7.44693C17.6806 7.52626 17.4227 7.66014 17.1302 7.85351L17.0657 7.63039C17.041 7.51139 16.9616 7.45189 16.8377 7.45189H16.2427C16.1732 7.45189 16.1237 7.46676 16.089 7.49651C16.0542 7.52626 16.0394 7.57585 16.0394 7.65518V11.4483C16.0394 11.5177 16.0542 11.5673 16.089 11.602Z" fill="#000008"/>
  <path fill-rule="evenodd" clip-rule="evenodd" d="M25.2729 11.7779C24.6035 11.7779 24.0928 11.6193 23.6813 11.2028C23.4135 10.9301 23.1607 10.4194 23.1607 9.55165C23.1607 8.84757 23.3838 8.31207 23.7457 7.92532C24.1077 7.53361 24.663 7.35511 25.1837 7.35511C25.8382 7.35511 26.2249 7.50386 26.5224 7.80136C26.572 7.85094 26.8695 8.15836 26.8695 8.6542L26.8695 8.67443C26.8697 8.83713 26.8699 9.01117 26.7604 9.2492C26.6811 9.41778 26.5621 9.5219 26.5274 9.55165C26.0415 9.9979 25.0895 9.96815 24.7672 9.94832L24.2465 9.86899C24.2813 10.2309 24.3804 10.5136 24.6035 10.6722C24.8118 10.8259 25.0399 10.8854 25.506 10.8854C25.739 10.8854 26.0514 10.8408 26.453 10.7317C26.459 10.7302 26.4673 10.7283 26.4763 10.7261C26.4971 10.7212 26.522 10.7154 26.5323 10.7119C26.5342 10.7119 26.537 10.7117 26.5406 10.7115C26.5565 10.7106 26.5865 10.7088 26.6067 10.7169C26.6513 10.7317 26.7009 10.7714 26.7009 10.8954V11.2722C26.7009 11.3614 26.691 11.4209 26.6662 11.4557C26.6414 11.4904 26.5918 11.5251 26.5224 11.5548C26.096 11.7036 25.7093 11.7779 25.2729 11.7779ZM25.7737 8.69386C25.7737 8.29224 25.4911 8.1782 25.144 8.1782C24.9159 8.1782 24.6928 8.26249 24.5391 8.42611C24.3903 8.58974 24.3011 8.8327 24.2614 9.14507C24.2614 9.14507 24.8763 9.25911 25.3225 9.18474C25.5555 9.14507 25.7737 9.01615 25.7737 8.69386Z" fill="#000008"/>
  <path fill-rule="evenodd" clip-rule="evenodd" d="M18.3742 19.4693C18.8017 19.902 19.3323 20.0669 20.0277 20.0669C20.4811 20.0669 20.888 19.9896 21.3259 19.835C21.398 19.8041 21.4495 19.7681 21.4753 19.732C21.501 19.696 21.5113 19.6341 21.5113 19.5414V19.1499C21.5113 19.0211 21.4598 18.9799 21.4134 18.9645C21.3925 18.9561 21.3612 18.9579 21.3448 18.9589C21.3411 18.9591 21.3381 18.9593 21.3362 18.9593C21.3254 18.9629 21.2996 18.969 21.278 18.9741C21.2686 18.9763 21.26 18.9784 21.2538 18.9799C20.8365 19.0933 20.512 19.1396 20.2699 19.1396C19.7856 19.1396 19.5487 19.0778 19.3323 18.9181C19.1005 18.7533 18.9975 18.4596 18.9614 18.0836L19.5023 18.166C19.8371 18.1866 20.8262 18.2175 21.331 17.7539C21.3671 17.723 21.4907 17.6148 21.5731 17.4397C21.6869 17.1924 21.6867 17.0116 21.6865 16.8425L21.6865 16.8215C21.6865 16.3064 21.3774 15.987 21.3259 15.9355C21.0168 15.6264 20.615 15.4719 19.935 15.4719C19.3941 15.4719 18.8172 15.6573 18.4411 16.0643C18.0651 16.4661 17.8333 17.0224 17.8333 17.7539C17.8333 18.6554 18.096 19.186 18.3742 19.4693ZM19.8938 16.327C20.2544 16.327 20.548 16.4455 20.548 16.8627C20.548 17.1976 20.3214 17.3315 20.0793 17.3727C19.6156 17.45 18.9769 17.3315 18.9769 17.3315C19.0181 17.007 19.1108 16.7546 19.2653 16.5846C19.425 16.4146 19.6569 16.327 19.8938 16.327Z" fill="#000008"/>
  <path d="M7.5887 19.9313C7.53204 19.9313 7.48568 19.9261 7.44962 19.9106C7.41356 19.8952 7.38265 19.8746 7.35689 19.8437C7.33114 19.8128 7.30538 19.7664 7.28477 19.7097L5.8218 15.9029C5.8133 15.8774 5.80479 15.8535 5.79715 15.8319C5.7909 15.8143 5.78522 15.7983 5.78059 15.7845C5.77029 15.7484 5.76514 15.7175 5.76514 15.6917C5.76514 15.6042 5.8218 15.5629 5.93513 15.5629H6.79025C6.88297 15.5629 6.94994 15.5784 6.99115 15.6145C7.03236 15.6505 7.06842 15.7072 7.08902 15.7845L7.9699 18.8134L8.86623 15.7845C8.88683 15.702 8.9229 15.6454 8.96411 15.6145C9.00532 15.5836 9.07228 15.5629 9.16501 15.5629H9.99437C10.1077 15.5629 10.1644 15.6042 10.1644 15.6917C10.1644 15.7226 10.1592 15.7535 10.1489 15.7845C10.143 15.8052 10.1353 15.826 10.127 15.8487C10.1208 15.8655 10.1142 15.8833 10.1077 15.9029L8.64472 19.7097C8.62412 19.7664 8.59836 19.8128 8.5726 19.8437C8.54685 19.8746 8.51594 19.9003 8.48503 19.9106C8.45413 19.9209 8.40261 19.9313 8.34079 19.9313H7.5887Z" fill="#000008"/>
  <path d="M10.799 14.7079C10.9278 14.8264 11.1029 14.8882 11.3193 14.8882C11.5357 14.8882 11.7056 14.8264 11.8396 14.7079C11.9684 14.5843 12.0353 14.4246 12.0353 14.2185C12.0353 14.0125 11.9684 13.8476 11.8396 13.7292C11.7108 13.6107 11.5357 13.5489 11.3193 13.5489C11.1029 13.5489 10.9278 13.6107 10.799 13.7292C10.6702 13.8528 10.6033 14.0125 10.6033 14.2185C10.6033 14.4246 10.6702 14.5894 10.799 14.7079Z" fill="#000008"/>
  <path d="M10.7424 19.8798C10.7784 19.9159 10.8351 19.9313 10.9072 19.9313H11.7263C11.8035 19.9313 11.8602 19.9159 11.8911 19.8798C11.922 19.8489 11.9375 19.7923 11.9375 19.7201V15.7794C11.9375 15.7021 11.922 15.6455 11.8911 15.6145C11.8602 15.5836 11.8035 15.5682 11.7263 15.5682H10.9072C10.8299 15.5682 10.7784 15.5836 10.7424 15.6145C10.7063 15.6455 10.6908 15.697 10.6908 15.7794V19.7201C10.6908 19.7923 10.7063 19.8438 10.7424 19.8798Z" fill="#000008"/>
  <path fill-rule="evenodd" clip-rule="evenodd" d="M14.5638 20.0234C14.1929 20.0234 13.8684 19.9255 13.5953 19.7349C13.3223 19.5443 13.1111 19.2765 12.9669 18.9416C12.8226 18.6016 12.7505 18.2101 12.7505 17.7671C12.7505 17.0614 12.9205 16.4948 13.2554 16.0724C13.5902 15.6499 14.0384 15.4336 14.5895 15.4336C15.0377 15.4336 15.4292 15.5624 15.7589 15.8199V13.8212C15.7589 13.7388 15.7744 13.6873 15.8104 13.6564C15.8465 13.6255 15.898 13.61 15.9753 13.61H16.7943C16.8716 13.61 16.9282 13.6255 16.9592 13.6564C16.9901 13.6873 17.0055 13.744 17.0055 13.8212V19.7195C17.0055 19.7916 16.9901 19.8483 16.9592 19.8792C16.9282 19.9152 16.8716 19.9307 16.7943 19.9307H16.1092C16.0422 19.9307 15.9907 19.9152 15.9495 19.8895C15.9134 19.8586 15.8877 19.8122 15.8671 19.7452L15.8156 19.5495C15.4704 19.8637 15.048 20.0234 14.5638 20.0234ZM14.9759 19.0859C15.2489 19.0859 15.5116 19.0034 15.764 18.8489V16.5926C15.5168 16.4484 15.2386 16.3814 14.9192 16.3814C14.6153 16.3814 14.3938 16.4948 14.2444 16.7214C14.095 16.9481 14.0229 17.2881 14.0229 17.7414C14.0229 18.1998 14.1002 18.5347 14.2599 18.7613C14.4093 18.9725 14.6514 19.0859 14.9759 19.0859Z" fill="#000008"/>
  <path fill-rule="evenodd" clip-rule="evenodd" d="M22.8627 19.4474C23.2439 19.8543 23.7745 20.0604 24.4544 20.0604C25.1344 20.0604 25.665 19.8543 26.0462 19.4474C26.4274 19.0404 26.618 18.4738 26.618 17.7423C26.618 17.0211 26.4274 16.4545 26.0462 16.0475C25.665 15.6406 25.1344 15.4345 24.4544 15.4345C23.7745 15.4345 23.2439 15.6406 22.8627 16.0475C22.4815 16.4545 22.2909 17.016 22.2909 17.7423C22.2909 18.4738 22.4815 19.0404 22.8627 19.4474ZM25.3508 17.7423C25.3508 18.6489 25.052 19.1022 24.4544 19.1022C23.8569 19.1022 23.5581 18.6489 23.5581 17.7423C23.5581 16.8408 23.8569 16.3927 24.4544 16.3927C25.052 16.3927 25.3508 16.8408 25.3508 17.7423Z" fill="#000008"/>
  <path d="M5.79232 22.268V22.3335C5.80166 22.3896 5.82971 22.4457 5.88113 22.4971C8.64826 25.1894 12.3035 26.8067 16.3654 26.8067C19.2634 26.8067 22.6289 25.8251 24.9473 23.9788C25.3306 23.6703 25.0034 23.2122 24.6107 23.3945C22.0072 24.5864 19.1793 25.1614 16.6085 25.1614C12.7943 25.1614 9.10166 24.0349 6.11951 22.1605C6.06809 22.1278 6.01668 22.1138 5.96994 22.1138C5.87645 22.1138 5.80634 22.1792 5.79232 22.268Z" fill="#000008"/>
  <path d="M22.916 22.7542C22.9254 22.6934 22.9675 22.6187 23.0516 22.5579C23.734 22.0437 24.6455 21.8708 25.4121 21.8661C26.1226 21.8661 26.6928 22.0157 26.8143 22.1793C27.0667 22.5205 26.7489 24.8623 25.5009 25.9794C25.3092 26.1524 25.1269 26.0589 25.2111 25.8345C25.2191 25.8126 25.2275 25.7898 25.2361 25.7664C25.5229 24.9849 26.1092 23.3874 25.8187 22.9926C25.5196 22.5859 23.8556 22.7963 23.1077 22.8944C22.9908 22.9085 22.9254 22.8617 22.916 22.7916V22.7542Z" fill="#000008"/>
</svg>