<svg xmlns="http://www.w3.org/2000/svg" width="20" height="21" viewBox="0 0 20 21" fill="none">
  <g clip-path="url(#clip0_832_2842)">
    <path d="M10 13C11.3807 13 12.5 11.8807 12.5 10.5C12.5 9.11929 11.3807 8 10 8C8.61929 8 7.5 9.11929 7.5 10.5C7.5 11.8807 8.61929 13 10 13Z" stroke="white" stroke-width="1.5" stroke-linecap="round" stroke-linejoin="round"/>
    <path d="M16.1663 12.9997C16.0554 13.251 16.0223 13.5298 16.0713 13.8002C16.1204 14.0705 16.2492 14.3199 16.4413 14.5163L16.4913 14.5663C16.6463 14.7211 16.7692 14.9049 16.8531 15.1073C16.937 15.3096 16.9802 15.5265 16.9802 15.7455C16.9802 15.9645 16.937 16.1814 16.8531 16.3837C16.7692 16.5861 16.6463 16.7699 16.4913 16.9247C16.3366 17.0796 16.1527 17.2026 15.9504 17.2864C15.7481 17.3703 15.5312 17.4135 15.3122 17.4135C15.0931 17.4135 14.8763 17.3703 14.6739 17.2864C14.4716 17.2026 14.2878 17.0796 14.133 16.9247L14.083 16.8747C13.8866 16.6826 13.6372 16.5537 13.3668 16.5047C13.0965 16.4557 12.8177 16.4887 12.5663 16.5997C12.3199 16.7053 12.1097 16.8807 11.9616 17.1043C11.8135 17.3279 11.7341 17.5899 11.733 17.858V17.9997C11.733 18.4417 11.5574 18.8656 11.2449 19.1782C10.9323 19.4907 10.5084 19.6663 10.0663 19.6663C9.62431 19.6663 9.20039 19.4907 8.88783 19.1782C8.57527 18.8656 8.39967 18.4417 8.39967 17.9997V17.9247C8.39322 17.6488 8.30394 17.3813 8.14343 17.1569C7.98293 16.9325 7.75862 16.7616 7.49967 16.6663C7.24833 16.5554 6.96951 16.5223 6.69918 16.5713C6.42885 16.6204 6.17941 16.7492 5.98301 16.9413L5.93301 16.9913C5.77822 17.1463 5.5944 17.2692 5.39207 17.3531C5.18974 17.437 4.97287 17.4802 4.75384 17.4802C4.53481 17.4802 4.31794 17.437 4.11561 17.3531C3.91328 17.2692 3.72946 17.1463 3.57467 16.9913C3.41971 16.8366 3.29678 16.6527 3.21291 16.4504C3.12903 16.2481 3.08586 16.0312 3.08586 15.8122C3.08586 15.5931 3.12903 15.3763 3.21291 15.1739C3.29678 14.9716 3.41971 14.7878 3.57467 14.633L3.62467 14.583C3.81679 14.3866 3.94566 14.1372 3.99468 13.8668C4.04369 13.5965 4.0106 13.3177 3.89967 13.0663C3.79404 12.8199 3.61864 12.6097 3.39506 12.4616C3.17149 12.3135 2.9095 12.2341 2.64134 12.233H2.49967C2.05765 12.233 1.63372 12.0574 1.32116 11.7449C1.0086 11.4323 0.833008 11.0084 0.833008 10.5663C0.833008 10.1243 1.0086 9.70039 1.32116 9.38783C1.63372 9.07527 2.05765 8.89967 2.49967 8.89967H2.57467C2.8505 8.89322 3.11801 8.80394 3.34242 8.64343C3.56684 8.48293 3.73777 8.25862 3.83301 7.99967C3.94394 7.74833 3.97703 7.46951 3.92801 7.19918C3.879 6.92885 3.75012 6.67941 3.55801 6.48301L3.50801 6.43301C3.35305 6.27822 3.23012 6.0944 3.14624 5.89207C3.06237 5.68974 3.0192 5.47287 3.0192 5.25384C3.0192 5.03481 3.06237 4.81794 3.14624 4.61561C3.23012 4.41328 3.35305 4.22946 3.50801 4.07467C3.6628 3.91971 3.84661 3.79678 4.04894 3.71291C4.25127 3.62903 4.46815 3.58586 4.68717 3.58586C4.9062 3.58586 5.12308 3.62903 5.32541 3.71291C5.52774 3.79678 5.71155 3.91971 5.86634 4.07467L5.91634 4.12467C6.11274 4.31679 6.36219 4.44566 6.63252 4.49468C6.90285 4.54369 7.18166 4.5106 7.43301 4.39967H7.49967C7.74615 4.29404 7.95635 4.11864 8.10442 3.89506C8.25248 3.67149 8.33194 3.4095 8.33301 3.14134V2.99967C8.33301 2.55765 8.5086 2.13372 8.82116 1.82116C9.13372 1.5086 9.55765 1.33301 9.99967 1.33301C10.4417 1.33301 10.8656 1.5086 11.1782 1.82116C11.4907 2.13372 11.6663 2.55765 11.6663 2.99967V3.07467C11.6674 3.34283 11.7469 3.60482 11.8949 3.8284C12.043 4.05197 12.2532 4.22737 12.4997 4.33301C12.751 4.44394 13.0298 4.47703 13.3002 4.42801C13.5705 4.379 13.8199 4.25012 14.0163 4.05801L14.0663 4.00801C14.2211 3.85305 14.4049 3.73012 14.6073 3.64624C14.8096 3.56237 15.0265 3.5192 15.2455 3.5192C15.4645 3.5192 15.6814 3.56237 15.8837 3.64624C16.0861 3.73012 16.2699 3.85305 16.4247 4.00801C16.5796 4.1628 16.7026 4.34661 16.7864 4.54894C16.8703 4.75127 16.9135 4.96815 16.9135 5.18717C16.9135 5.4062 16.8703 5.62308 16.7864 5.82541C16.7026 6.02774 16.5796 6.21155 16.4247 6.36634L16.3747 6.41634C16.1826 6.61274 16.0537 6.86219 16.0047 7.13252C15.9557 7.40285 15.9887 7.68166 16.0997 7.93301V7.99967C16.2053 8.24615 16.3807 8.45635 16.6043 8.60442C16.8279 8.75248 17.0899 8.83194 17.358 8.83301H17.4997C17.9417 8.83301 18.3656 9.0086 18.6782 9.32116C18.9907 9.63372 19.1663 10.0576 19.1663 10.4997C19.1663 10.9417 18.9907 11.3656 18.6782 11.6782C18.3656 11.9907 17.9417 12.1663 17.4997 12.1663H17.4247C17.1565 12.1674 16.8945 12.2469 16.671 12.3949C16.4474 12.543 16.272 12.7532 16.1663 12.9997V12.9997Z" stroke="white" stroke-width="1.5" stroke-linecap="round" stroke-linejoin="round"/>
  </g>
  <defs>
    <clipPath id="clip0_832_2842">
      <rect width="20" height="20" fill="white" transform="translate(0 0.5)"/>
    </clipPath>
  </defs>
</svg>