<svg xmlns="http://www.w3.org/2000/svg" width="32" height="32" viewBox="0 0 32 32" fill="none">
  <rect x="1.85376" y="2.13306" width="27.8328" height="27.8328" rx="2.78328" fill="#FF5900"/>
  <path d="M9.17107 13.0079C9.28767 13.0079 9.37288 13.0707 9.39979 13.1828L10.5703 17.3938L11.7542 13.1828C11.7811 13.0752 11.8618 13.0079 11.9829 13.0079H13.8933C13.983 13.0079 14.0458 13.0976 14.0189 13.1828L12.1354 19.2055C12.0995 19.3221 12.0188 19.3804 11.8977 19.3804H9.20695C9.09035 19.3804 9.00515 19.3266 8.96927 19.2055L7.0768 13.1828C7.04989 13.1021 7.11716 13.0079 7.20685 13.0079H9.17107ZM14.3731 14.2098C14.3731 13.5012 14.9561 12.9182 15.6647 12.9182C16.3732 12.9182 16.9562 13.5012 16.9562 14.2098C16.9562 14.9183 16.3732 15.5013 15.6647 15.5013C14.9561 15.5013 14.3731 14.9183 14.3731 14.2098ZM16.8217 19.1921C16.8217 19.2997 16.7499 19.376 16.6378 19.376H14.6915C14.5839 19.376 14.5077 19.3042 14.5077 19.1921V16.183C14.5077 16.0753 14.5794 15.9991 14.6915 15.9991H16.6378C16.7455 15.9991 16.8217 16.0708 16.8217 16.183V19.1921ZM17.4854 19.1472L19.3241 16.1919L17.4854 13.2366C17.4181 13.129 17.4764 13.0079 17.602 13.0079H19.6828C19.8263 13.0079 19.9115 13.0527 19.9743 13.1604L20.9834 14.9228L21.9924 13.1604C22.0596 13.0527 22.1404 13.0079 22.2839 13.0079H24.3198C24.4454 13.0079 24.5037 13.1245 24.4364 13.2366L22.5978 16.1919L24.4364 19.1472C24.4992 19.2549 24.4454 19.376 24.3198 19.376H22.239C22.0955 19.376 22.0103 19.3311 21.9475 19.2235L20.9385 17.4611L19.9295 19.2235C19.8667 19.3311 19.786 19.376 19.638 19.376H17.602C17.4764 19.376 17.4181 19.2594 17.4854 19.1472Z" fill="white"/>
</svg>