<svg xmlns="http://www.w3.org/2000/svg" width="110" height="28" viewBox="0 0 110 28" fill="none">
<g clip-path="url(#clip0_264_758)">
<path d="M16.7113 17.1397V27.4393C15.8678 27.5805 15.1014 27.6511 14.4078 27.6511C10.2931 27.6511 6.86349 26.3388 4.11895 23.714C1.37013 21.0893 0 17.7959 0 13.838C0 9.88014 1.38726 6.7238 4.15749 4.04507C6.92772 1.36634 10.2974 0.0249023 14.2665 0.0249023C18.6937 0.0249023 22.1833 1.27913 24.7351 3.79174C27.287 6.30434 28.5629 9.73063 28.5629 14.0789V27.0946H18.2998V14.7974C18.2998 13.3936 17.9487 12.2765 17.2422 11.4417C16.5358 10.6069 15.5895 10.1916 14.4035 10.1916C13.3245 10.1916 12.3911 10.5737 11.6033 11.3379C10.8155 12.102 10.4215 13.0074 10.4215 14.054C10.4215 15.1545 10.7769 16.0599 11.492 16.7701C12.207 17.4803 13.1104 17.8333 14.2065 17.8333C15.1014 17.8333 15.9363 17.6048 16.7027 17.1397H16.7113Z" fill="#BABABA"/>
<path d="M34.5444 0.930298H44.8076V15.9146C44.8076 17.4221 45.4584 18.178 46.7557 18.178C48.0531 18.178 48.6782 17.4221 48.6782 15.9146V0.930298H58.9413V15.7277C58.9413 19.1706 57.7638 22.0736 55.4004 24.445C53.0412 26.8122 50.1511 28 46.73 28C42.8337 28 39.6953 26.6253 37.3189 23.876C35.4693 21.7289 34.5487 18.747 34.5487 14.9344V0.930298H34.5444Z" fill="#BABABA"/>
<path d="M79.9299 0.294868V10.9392C79.2149 10.5488 78.5684 10.3536 77.9818 10.3536C76.115 10.3536 75.1816 11.7366 75.1816 14.5067V27.0946H64.9185V12.588C64.9185 8.75467 65.9974 5.69801 68.1554 3.41798C70.3133 1.13794 73.1949 0 76.8001 0C77.605 0 78.6454 0.0996737 79.9299 0.294868Z" fill="#BABABA"/>
<path d="M98.1484 17.1397V27.4393C97.3049 27.5805 96.5385 27.6511 95.8449 27.6511C91.7302 27.6511 88.3006 26.3388 85.5561 23.714C82.8115 21.0893 81.4414 17.7959 81.4414 13.838C81.4414 9.88014 82.8287 6.7238 85.5989 4.04507C88.3648 1.36634 91.7345 0.0249023 95.7036 0.0249023C100.131 0.0249023 103.62 1.27913 106.172 3.79174C108.724 6.30434 110 9.73063 110 14.0789V27.0946H99.7369V14.7974C99.7369 13.3936 99.3858 12.2765 98.6793 11.4417C97.9729 10.6069 97.0266 10.1916 95.8406 10.1916C94.7616 10.1916 93.8282 10.5737 93.0404 11.3379C92.2526 12.102 91.863 13.0074 91.863 14.054C91.863 15.1545 92.2183 16.0599 92.9334 16.7701C93.6484 17.4803 94.5518 17.8333 95.6479 17.8333C96.5428 17.8333 97.3777 17.6048 98.1441 17.1397H98.1484Z" fill="#BABABA"/>
</g>
<defs>
<clipPath id="clip0_264_758">
<rect width="110" height="28" fill="#BABABA"/>
</clipPath>
</defs>
</svg>